<svg width="36" height="36" viewBox="0 0 36 36" fill="none" xmlns="http://www.w3.org/2000/svg">
<path d="M7.5 8.25V11.25C7.5 12.0456 7.81607 12.8087 8.37868 13.3713C8.94129 13.9339 9.70435 14.25 10.5 14.25C11.2956 14.25 12.0587 13.9339 12.6213 13.3713C13.1839 12.8087 13.5 12.0456 13.5 11.25V8.25H22.5V11.25C22.5 12.0456 22.8161 12.8087 23.3787 13.3713C23.9413 13.9339 24.7044 14.25 25.5 14.25C26.2956 14.25 27.0587 13.9339 27.6213 13.3713C28.1839 12.8087 28.5 12.0456 28.5 11.25V8.25C29.6935 8.25 30.8381 8.72411 31.682 9.56802C32.5259 10.4119 33 11.5565 33 12.75V15.75H3V12.75C3 11.5565 3.47411 10.4119 4.31802 9.56802C5.16193 8.72411 6.30653 8.25 7.5 8.25ZM33 18.75V27.75C33 28.9435 32.5259 30.0881 31.682 30.932C30.8381 31.7759 29.6935 32.25 28.5 32.25H7.5C6.30653 32.25 5.16193 31.7759 4.31802 30.932C3.47411 30.0881 3 28.9435 3 27.75L3 18.75H33ZM25.5 3.75C25.8978 3.75 26.2794 3.90804 26.5607 4.18934C26.842 4.47064 27 4.85218 27 5.25V11.25C27 11.6478 26.842 12.0294 26.5607 12.3107C26.2794 12.592 25.8978 12.75 25.5 12.75C25.1022 12.75 24.7206 12.592 24.4393 12.3107C24.158 12.0294 24 11.6478 24 11.25V5.25C24 4.85218 24.158 4.47064 24.4393 4.18934C24.7206 3.90804 25.1022 3.75 25.5 3.75V3.75ZM10.5 3.75C10.8978 3.75 11.2794 3.90804 11.5607 4.18934C11.842 4.47064 12 4.85218 12 5.25V11.25C12 11.6478 11.842 12.0294 11.5607 12.3107C11.2794 12.592 10.8978 12.75 10.5 12.75C10.1022 12.75 9.72064 12.592 9.43934 12.3107C9.15804 12.0294 9 11.6478 9 11.25V5.25C9 4.85218 9.15804 4.47064 9.43934 4.18934C9.72064 3.90804 10.1022 3.75 10.5 3.75V3.75Z" fill="#525252"/>
</svg>
